<svg aria-hidden="true" style="position:absolute;width:0;height:0;overflow:hidden" xmlns="http://www.w3.org/2000/svg">
  <defs>
    <symbol id="icon-location" viewBox="0 0 32 32">
      <path fill="#b4bcc4" style="fill:var(--color1, #b4bcc4)" d="M27.493 11.267C26.093 5.107 20.72 2.334 16 2.334h-.013c-4.707 0-10.093 2.76-11.493 8.92-1.56 6.88 2.653 12.707 6.467 16.373 1.413 1.36 3.227 2.04 5.04 2.04s3.627-.68 5.027-2.04c3.813-3.667 8.027-9.48 6.467-16.36zM16 17.947a4.2 4.2 0 1 1-.001-8.399A4.2 4.2 0 0 1 16 17.947z"/>
    </symbol>
    <symbol id="icon-logo" viewBox="0 0 37 32">
      <path d="M18.677.026a.405.405 0 0 0-.117.088 477.68 477.68 0 0 0-2.475 3.923c-1.827 2.911-2.423 3.891-2.433 3.978-.029.279.306.451.518.269.029-.026 1.075-1.681 2.328-3.68C17.748 2.605 18.784.97 18.794.97c.016 0 1.7 2.671 5.044 8.015l.895 1.428c.306.49.821 1.308 1.137 1.817.319.509.687 1.094.817 1.298s.498.789.817 1.298l1.944 3.105c.137.217.251.402.251.412 0 .013-2.791.019-6.203.019h-6.203v-1.668l.107.101c.267.256.72.464 1.179.545.358.062.547.062.664 0 .156-.078.182-.279.062-.422-.065-.071-.107-.088-.303-.097-.944-.062-1.498-.487-1.664-1.282-.026-.13-.042-.243-.033-.25.006-.01.101.055.205.139.361.292.967.5 1.478.5.182 0 .228-.013.303-.081.179-.162.062-.467-.182-.474-.772-.016-1.384-.338-1.625-.85a2.262 2.262 0 0 1-.192-.815v-.159l.192.195c.329.337.889.659 1.143.659.169 0 .29-.159.261-.357-.013-.091-.13-.182-.306-.237-.407-.13-.808-.493-1.029-.941-.146-.295-.215-.578-.247-1.012-.02-.24-.036-.302-.098-.363-.107-.107-.332-.104-.436.007-.065.068-.078.13-.101.412-.029.425-.072.597-.228.922-.16.338-.414.597-.729.75a1.199 1.199 0 0 1-.303.107c-.114 0-.267.169-.267.292 0 .127.153.292.27.292.228 0 .765-.269 1.039-.519.117-.104.221-.185.231-.175.026.029-.01.396-.059.597-.173.694-.674 1.084-1.514 1.168-.394.042-.414.049-.475.165a.28.28 0 0 0 .075.354c.261.204 1.374-.084 1.827-.47l.137-.12v.094c0 .308-.221.782-.466 1.003-.28.25-.765.435-1.156.435a.859.859 0 0 0-.28.045c-.212.088-.225.389-.02.5.107.058.518.029.863-.055.306-.078.739-.286.925-.448.153-.127.173-.11.153.12a21.95 21.95 0 0 0-.016.769l-.003.626H11.66v-2.181l.153.136c.179.156.599.367.873.438.28.075.781.101.876.049.166-.088.192-.286.055-.425-.085-.081-.12-.094-.287-.094-.436-.003-.915-.175-1.205-.435a1.489 1.489 0 0 1-.414-.727c-.046-.201-.033-.247.049-.149.065.078.3.234.518.341.423.208 1.192.302 1.335.159.137-.136.107-.35-.055-.432a1.327 1.327 0 0 0-.368-.065c-.615-.042-1.114-.338-1.348-.795-.085-.169-.182-.509-.182-.649 0-.071.01-.068.156.058.342.305.951.519 1.465.519.221 0 .277-.01.332-.065a.265.265 0 0 0 .059-.312c-.059-.123-.169-.175-.387-.175-.244 0-.642-.104-.879-.23a1.427 1.427 0 0 1-.563-.574c-.085-.169-.182-.509-.182-.649 0-.071.01-.068.153.058.199.172.609.373.935.454.248.062.703.088.817.045.081-.032.153-.201.13-.305-.036-.162-.117-.201-.459-.23-.84-.071-1.361-.471-1.527-1.171a2.028 2.028 0 0 1-.049-.279c0-.071.01-.068.146.052.339.295.856.49 1.387.516.322.016.352.013.414-.049.094-.094.117-.211.065-.318-.059-.123-.169-.175-.387-.175-.228 0-.622-.097-.843-.211-.495-.25-.778-.769-.781-1.425v-.224l.254.243c.42.409 1.045.763 1.407.795.163.016.277-.055.313-.201.042-.162-.046-.247-.401-.393-.43-.172-.703-.35-.983-.646-.355-.373-.589-.941-.589-1.428 0-.165-.065-.321-.147-.354-.127-.049-.296-.019-.374.062-.062.068-.078.13-.098.38a1.994 1.994 0 0 1-.182.766c-.247.558-.768 1.003-1.469 1.256-.124.045-.241.107-.261.136-.072.094-.052.282.039.367.068.065.101.071.244.055.195-.023.684-.247.98-.448.114-.075.306-.237.43-.36.12-.12.228-.221.241-.221.033 0-.023.535-.075.737a1.348 1.348 0 0 1-.69.879c-.241.127-.638.234-.876.234-.189 0-.348.062-.381.146-.046.12-.02.266.062.341.075.068.098.071.397.055.528-.029.918-.159 1.299-.432l.241-.172v.107c0 .305-.247.792-.505.993-.29.23-.752.389-1.123.389-.179 0-.339.062-.371.146-.042.117-.02.266.055.334.065.058.114.071.313.071.495 0 .996-.159 1.39-.441l.241-.172v.107c0 .315-.267.831-.527 1.016a2.027 2.027 0 0 1-1.101.367c-.179 0-.339.062-.371.146-.042.117-.02.266.055.334.065.062.114.071.335.071.479 0 1.016-.178 1.407-.467l.202-.149v.11c0 .182-.124.519-.264.73-.254.38-.817.649-1.358.652-.186 0-.345.062-.378.146-.042.117-.02.266.055.334.065.062.114.071.335.071.488 0 1.078-.198 1.446-.49l.166-.13-.023.123c-.114.62-.563 1.051-1.237 1.194a2.428 2.428 0 0 1-.407.049c-.15 0-.199.016-.27.081-.12.114-.12.308.007.406.081.068.114.071.397.055.169-.01.397-.042.505-.071.267-.068.648-.253.85-.409.091-.068.173-.127.179-.127.013 0-.003 2.119-.016 2.135-.007.003-.713.003-1.576 0l-1.566-.01.436-.698c.355-.561.44-.72.44-.814a.314.314 0 0 0-.469-.276c-.14.075-1.299 1.924-1.316 2.1-.016.149.033.24.156.305.085.042 1.387.049 11.703.042l11.612-.01.088-.088c.173-.172.146-.247-.378-1.081-.462-.737-1.114-1.775-2.084-3.326-.274-.438-.642-1.022-.817-1.298s-.58-.918-.895-1.428C19.926 1.491 19.021.063 18.917.027c-.117-.042-.147-.042-.238-.006z"/>
      <path d="M20.075 5.657c-.06.058-.831.946-1.563 1.812a5.417 5.417 0 0 0-.39.495c-.044.129.038.261.266.418.124.087.222.164.222.177s-.327.357-.726.763c-.396.405-.742.772-.764.814-.076.148.022.373.174.389.193.023.212.006 1.103-.894.485-.489.904-.933.929-.981.098-.187.01-.309-.431-.605l-.076-.051.171-.209c.095-.116.323-.383.507-.592 1.011-1.162 1.015-1.168 1.015-1.322 0-.203-.288-.341-.438-.212zM7.38 20.397a2.115 2.115 0 0 0-1.079.543c-.351.345-.522.722-.554 1.231-.06.961.535 1.749 1.493 1.988.263.063.848.063 1.117-.003.731-.176 1.291-.738 1.443-1.441.221-1.046-.383-2.013-1.427-2.276a3.27 3.27 0 0 0-.993-.041zm.829.782c.626.22.93 1.002.642 1.642-.399.879-1.715.876-2.123-.003-.082-.176-.092-.229-.089-.512 0-.408.076-.606.313-.851.259-.261.563-.37.949-.336.104.009.244.035.307.06zM19.262 20.392l-.418.013v2.282l-.386-.478c-.21-.26-.622-.773-.917-1.143l-.531-.664h-.738l.016 1.868.016 1.903c-.003.019.154.032.405.032.226 0 .408-.006.408-.016s0-.501.003-1.091c0-.594.013-1.095.025-1.117s.367.392.932 1.094l.914 1.13h.7v-1.919a159.4 159.4 0 0 0-.006-1.91 6.143 6.143 0 0 1-.424.016zM20.923 20.747v.371l1.199-.019v1.553c0 1.356.006 1.55.047 1.55.025.003.221.003.436.003h.385l.009-1.55.006-1.553h1.199v-.71l-3.282-.016v.371zM.019 21.271c.013.494.023 1.357.023 1.916v1.018h.812l.006-1.066c0-.588.003-1.086 0-1.112-.003-.078.065.019.461.675.211.346.448.737.53.863l.143.236h.409l.552-.921.552-.924.019.637c.013.352.023.853.023 1.115v.478l.406.01c.224.006.409 0 .416-.013.003-.016.003-.876-.003-1.916l-.006-1.89h-.741l-.448.75c-1.014 1.706-.959 1.619-1.001 1.554a80.32 80.32 0 0 1-.715-1.183l-.676-1.121h-.783l.019.895zM11.214 21.62c0 .947.013 1.3.045 1.468.102.495.374.871.767 1.062.304.148.498.191.888.191.757 0 1.252-.267 1.527-.831.176-.36.192-.511.192-1.89v-1.244h-.86l-.01 1.277c-.01 1.257-.01 1.283-.083 1.445-.16.356-.409.498-.818.472-.377-.026-.578-.178-.709-.538-.057-.152-.061-.261-.051-1.412l.01-1.244h-.898v1.244zM26.318 20.645c-.065.146-.172.382-.233.524-.065.142-.389.876-.726 1.633s-.609 1.378-.606 1.384c.003.003.207.01.454.013l.447.006.331-.821h1.783l.165.407.165.404h.392c.217 0 .431 0 .473-.003.071 0 .042-.071-.512-1.319a209.83 209.83 0 0 1-.846-1.905l-.259-.589-.454-.003h-.454l-.12.268zm.94 1.516.227.543h-.596a6.97 6.97 0 0 1-.596-.013c0-.013.386-.948.535-1.297l.055-.126.075.175c.039.097.175.42.302.718zM30.1 22.289l.018 1.916.356-.003.397-.006c.026 0 .035-.405.035-1.91v-1.91h-.82l.015 1.913zM32.547 22.283v1.906l.359.003c.199.003.398.003.444.006l.082.003v-1.118c-.003-.617.01-1.128.023-1.134.013-.01.45.494.969 1.118l.946 1.131.734.006v-3.829h-.881l-.007 1.144-.01 1.144-.391-.468-.571-.688-.522-.63a11.098 11.098 0 0 1-.369-.456c-.02-.036-.117-.045-.414-.045h-.391v1.906zM17.823 26.55c-.368.076-.674.317-.789.621-.199.515 0 1.054.476 1.311.172.092.206.099.553.099s.384-.007.573-.099l.202-.102.01-.403.01-.403h-.307v.664l-.108.046c-.428.172-.917.017-1.109-.353a.745.745 0 0 1 .172-.928.854.854 0 0 1 1.062-.069l.125.083.088-.089.091-.086-.115-.096c-.206-.168-.637-.258-.934-.195zM21.526 26.548c-.332.065-.64.278-.785.539-.1.183-.121.604-.045.827.159.451.702.735 1.253.654.204-.029.488-.15.567-.239.041-.046.035-.065-.041-.137l-.087-.082-.138.085c-.526.33-1.228.036-1.311-.546-.052-.353.197-.725.55-.823.298-.082.529-.052.768.101l.131.082.09-.082.087-.082-.08-.082c-.17-.173-.64-.278-.959-.216zM6.974 27.557v1.024l.263-.02.009-.456.009-.453h1.081v.925h.279v-2.048h-.279v.882l-1.084.013v-.895h-.279v1.027zM9.582 27.544l.014 1.017.387.02V26.53h-.41l.009 1.014zM10.81 27.547l.01 1.014.282.02v-.55l.176-.171a1.07 1.07 0 0 1 .196-.171c.01 0 .196.201.408.445l.388.445h.166c.089 0 .156-.013.146-.026a19.73 19.73 0 0 0-.464-.566l-.447-.537.431-.448.434-.448-.162-.01-.159-.013-.554.573-.554.57-.003-.57v-.566h-.298l.007 1.011zM13.271 27.544l.009 1.017.258.02V26.53h-.274l.006 1.014zM14.502 27.544l.01 1.017.285.02v-1.529l.178.215.624.763c.419.512.46.548.564.548h.111V26.53h-.268v.743c0 .41-.01.743-.024.743-.017 0-.299-.334-.631-.743-.594-.73-.607-.743-.731-.743h-.124l.007 1.014zM23.248 27.556v1.026h1.367v-.265h-1.074V26.53h-.293v1.026zM25.299 27.233c0 .789.025.925.198 1.113.141.155.327.231.563.235.399.007.619-.112.764-.416l.094-.198.009-.72.013-.717h-.289v.684c0 .595-.009.704-.06.819-.079.182-.154.244-.352.287-.333.069-.591-.089-.654-.403a6.398 6.398 0 0 1-.035-.776v-.611h-.252v.703zM27.897 27.556v1.026h.491c.709 0 .959-.066 1.086-.287a.643.643 0 0 0 .015-.528c-.046-.102-.197-.241-.259-.241-.018 0 .015-.049.071-.109.17-.181.182-.482.031-.66-.163-.188-.228-.204-.855-.214l-.58-.013v1.026zm1.08-.736c.142.063.185.129.185.284-.003.241-.167.323-.648.323h-.339v-.66h.339c.241 0 .373.017.463.053zm.111.887c.142.063.207.221.163.392-.049.185-.151.224-.651.244l-.426.017v-.702h.401c.284 0 .435.013.512.049zM14.754 31.6c-.14.033-.169.334-.036.382.029.009 2.026.018 4.442.018h4.387l.058-.063c.071-.084.071-.184-.006-.271l-.062-.072-4.364-.003c-2.396-.003-4.387 0-4.419.009z"/>
    </symbol>
    <symbol id="icon-settings" viewBox="0 0 32 32">
      <path d="M28.4 10.107h-7.44c-.52 0-.933-.413-.933-.933s.413-.933.933-.933h7.44c.52 0 .933.413.933.933s-.413.933-.933.933zM8.56 10.107H3.6c-.52 0-.933-.413-.933-.933s.413-.933.933-.933h4.96c.52 0 .933.413.933.933s-.427.933-.933.933z"/>
      <path d="M13.52 14.44a5.267 5.267 0 1 0 0-10.534 5.267 5.267 0 0 0 0 10.534zM28.4 23.747h-4.96c-.52 0-.933-.413-.933-.933s.413-.933.933-.933h4.96c.52 0 .933.413.933.933s-.413.933-.933.933zM11.04 23.747H3.6c-.52 0-.933-.413-.933-.933s.413-.933.933-.933h7.44c.52 0 .933.413.933.933s-.427.933-.933.933z"/>
      <path d="M18.48 28.093a5.267 5.267 0 1 0 0-10.534 5.267 5.267 0 0 0 0 10.534z"/>
    </symbol>
    <symbol id="icon-bell" viewBox="0 0 32 32">
      <path d="m26.92 18.747-1.507-2.507c-.333-.547-.627-1.6-.627-2.24v-2.493c0-4.84-3.933-8.773-8.76-8.773-4.84.013-8.773 3.933-8.773 8.773v2.48c0 .64-.293 1.693-.613 2.24l-1.507 2.507c-.573.973-.707 2.08-.347 3.04.36.973 1.173 1.747 2.24 2.093 1.44.48 2.893.827 4.373 1.08.147.027.293.04.44.067.187.027.387.053.587.08.347.053.693.093 1.053.12a26.913 26.913 0 0 0 5.054 0c.307-.027.613-.053.907-.093.24-.027.48-.053.72-.093.147-.013.293-.04.44-.067a28.087 28.087 0 0 0 4.413-1.093 3.535 3.535 0 0 0 2.187-2.107c.373-1 .267-2.093-.28-3.013zM17 13.333a1.012 1.012 0 1 1-2.026 0V9.2A1.012 1.012 0 1 1 17 9.2v4.133zM19.773 26.68A4.018 4.018 0 0 1 16 29.333a3.956 3.956 0 0 1-2.827-1.187 3.668 3.668 0 0 1-.933-1.48c.173.027.347.04.533.067.307.04.627.08.947.107.76.067 1.533.107 2.307.107.76 0 1.52-.04 2.267-.107.28-.027.56-.04.827-.08l.653-.08z"/>
    </symbol>
  </defs>
</svg>
