<svg width="19" height="19" viewBox="0 0 19 19" fill="none" xmlns="http://www.w3.org/2000/svg">
<path d="M16.3244 6.68959C15.4931 3.03209 12.3027 1.38542 9.5002 1.38542C9.5002 1.38542 9.5002 1.38542 9.49228 1.38542C6.6977 1.38542 3.49936 3.02417 2.66811 6.68167C1.74186 10.7667 4.24353 14.2263 6.5077 16.4033C7.34686 17.2108 8.42353 17.6146 9.5002 17.6146C10.5769 17.6146 11.6535 17.2108 12.4848 16.4033C14.7489 14.2263 17.2506 10.7746 16.3244 6.68959ZM9.5002 10.6558C8.1227 10.6558 7.00645 9.53959 7.00645 8.16209C7.00645 6.78459 8.1227 5.66834 9.5002 5.66834C10.8777 5.66834 11.9939 6.78459 11.9939 8.16209C11.9939 9.53959 10.8777 10.6558 9.5002 10.6558Z" fill="#B4BCC4"/>
</svg>
