<svg aria-hidden="true" style="position:absolute;width:0;height:0;overflow:hidden" xmlns="http://www.w3.org/2000/svg">
  <defs>
    <symbol id="icon-dashboard" viewBox="0 0 32 32">
      <path d="M15.175.072c-.775.256-.625.113-7.71 7.185C3.738 10.978.599 14.167.48 14.342c-.475.707-.613 1.782-.344 2.595.406 1.207 1.369 1.92 2.751 2.032l.494.044.019 5.102c.019 5.002.025 5.109.15 5.446.469 1.238 1.251 2.001 2.395 2.339.294.088.763.1 3.345.1 2.889 0 3.014-.006 3.214-.125.113-.069.256-.213.325-.325.119-.2.125-.325.125-4.177 0-2.708.025-4.052.069-4.221.106-.375.4-.757.732-.951l.294-.175h3.952l.306.188c.344.213.669.694.738 1.075.019.131.038 1.989.038 4.133 0 4.221-.012 4.058.344 4.39l.169.156 3.008.019c2.013.012 3.12-.006 3.339-.05.863-.181 1.863-.944 2.257-1.72.438-.875.413-.519.438-6.134l.019-5.078.513-.044c1.257-.106 2.082-.657 2.601-1.72.219-.463.225-.481.225-1.251 0-.775 0-.788-.238-1.282-.238-.5-.244-.506-7.097-7.36-6.859-6.86-6.859-6.86-7.36-7.097-.475-.225-.538-.238-1.188-.25-.444-.013-.775.013-.938.069z"/>
    </symbol>
    <symbol id="icon-graph" viewBox="0 0 32 32">
      <path d="M28.894 9.267c-.853-2.893-3.267-5.307-6.16-6.16-2.2-.64-3.72-.587-4.773.2-1.267.947-1.413 2.653-1.413 3.867v3.32c0 3.28 1.493 4.947 4.427 4.947h3.827c1.2 0 2.92-.147 3.867-1.413.813-1.04.88-2.56.227-4.76z"/>
      <path d="M25.213 17.813a1.825 1.825 0 0 0-1.373-.627h-4.773a4.256 4.256 0 0 1-4.253-4.253V8.16c0-.52-.227-1.027-.627-1.373a1.805 1.805 0 0 0-1.427-.44c-3.133.4-6.013 2.12-7.893 4.707-1.893 2.6-2.587 5.773-1.987 8.947.867 4.587 4.533 8.253 9.133 9.12.733.147 1.467.213 2.2.213 2.413 0 4.747-.747 6.733-2.2 2.587-1.88 4.307-4.76 4.707-7.893a1.791 1.791 0 0 0-.44-1.427z"/>
    </symbol>
    <symbol id="icon-explore" viewBox="0 0 32 32">
      <path d="m19.787 14.533 7.547-5.053c.76-.507.96-1.547.453-2.293L25.36 3.574a1.654 1.654 0 0 0-2.293-.453L15.52 8.174l4.267 6.36z"/>
      <path d="m19.36 13.893-6.373 4.267-.213-.32-3.2-4.773L15.947 8.8l3.413 5.093z"/>
      <path d="m7.52 21.36 5.267-3.52L9.8 13.387l-5.267 3.52a1.332 1.332 0 0 0-.36 1.853L5.68 21c.4.613 1.227.773 1.84.36zM22.08 29.08c-.133.053-.28.093-.413.093-.387 0-.747-.227-.92-.6l-4.973-10.987-5.04 11c-.173.36-.533.587-.92.587-.133 0-.28-.04-.413-.093-.493-.24-.72-.827-.493-1.333l4.547-9.893 3.56-2.387 5.56 12.293c.227.493 0 1.093-.493 1.32z"/>
    </symbol>
    <symbol id="icon-theme" viewBox="0 0 32 32">
      <path d="M28.707 21.24c-.213-.36-.813-.92-2.307-.653-.827.147-1.667.213-2.507.173-3.107-.133-5.92-1.56-7.88-3.76-1.733-1.933-2.8-4.453-2.813-7.173 0-1.52.293-2.987.893-4.373.587-1.347.173-2.053-.12-2.347-.307-.307-1.027-.733-2.44-.147-5.453 2.293-8.827 7.76-8.427 13.613.4 5.507 4.267 10.213 9.387 11.987 1.227.427 2.52.68 3.853.733.213.013.427.027.64.027 4.467 0 8.653-2.107 11.293-5.693.893-1.24.653-2.027.427-2.387z"/>
    </symbol>
    <symbol id="icon-note" viewBox="0 0 32 32">
      <path d="M16.903 26.609c.366.085.4.565.043.684l-2.107.693c-5.293 1.707-8.08.28-9.8-5.013l-1.707-5.267c-1.707-5.293-.293-8.093 5-9.8l.699-.231c.537-.178 1.06.361.907.906-.076.27-.148.552-.219.846l-1.307 5.587c-1.467 6.28.68 9.747 6.96 11.24l1.53.356z"/>
      <path d="m22.894 4.28-2.227-.52C16.214 2.707 13.56 3.573 12 6.8c-.4.813-.72 1.8-.987 2.933L9.706 15.32c-1.307 5.573.413 8.32 5.973 9.64l2.24.533c.773.187 1.493.307 2.16.36 4.16.4 6.373-1.547 7.493-6.36l1.307-5.573c1.307-5.573-.4-8.333-5.987-9.64zm-2.507 13.493a.998.998 0 0 1-.973.747c-.08 0-.16-.013-.253-.027l-3.88-.987c-.533-.133-.853-.68-.72-1.213s.68-.853 1.213-.72l3.88.987c.547.133.867.68.733 1.213zm3.907-4.506a.998.998 0 0 1-.973.747c-.08 0-.16-.013-.253-.027l-6.467-1.64c-.533-.133-.853-.68-.72-1.213s.68-.853 1.213-.72l6.467 1.64c.547.12.867.667.733 1.213z"/>
    </symbol>
    <symbol id="icon-account" viewBox="0 0 32 32">
      <path d="M12 2.667A6.339 6.339 0 0 0 5.667 9c0 3.427 2.68 6.2 6.173 6.32a1.1 1.1 0 0 1 .293 0h.094A6.318 6.318 0 0 0 18.334 9a6.339 6.339 0 0 0-6.333-6.333zM18.773 18.867c-3.72-2.48-9.787-2.48-13.533 0C3.547 20 2.613 21.534 2.613 23.174s.933 3.16 2.613 4.28c1.867 1.253 4.32 1.88 6.773 1.88s4.907-.627 6.773-1.88c1.68-1.133 2.613-2.653 2.613-4.307-.013-1.64-.933-3.16-2.613-4.28zM26.653 9.787c.213 2.587-1.627 4.853-4.173 5.16h-.067c-.08 0-.16 0-.227.027-1.293.067-2.48-.347-3.373-1.107 1.373-1.227 2.16-3.067 2-5.067a6.186 6.186 0 0 0-1.027-2.907 4.787 4.787 0 0 1 6.866 3.893z"/>
      <path d="M29.32 22.12c-.107 1.293-.933 2.413-2.32 3.173-1.333.733-3.013 1.08-4.68 1.04.96-.867 1.52-1.947 1.627-3.093.133-1.653-.653-3.24-2.227-4.507-.893-.707-1.933-1.267-3.067-1.68 2.947-.853 6.653-.28 8.933 1.56 1.227.987 1.853 2.227 1.733 3.507z"/>
    </symbol>
    <symbol id="icon-setting" viewBox="0 0 32 32">
      <path d="M26.8 12.293c-2.413 0-3.4-1.707-2.2-3.8a2.529 2.529 0 0 0-.933-3.453L21.36 3.72c-1.053-.627-2.413-.253-3.04.8l-.147.253c-1.2 2.093-3.173 2.093-4.387 0l-.147-.253a2.188 2.188 0 0 0-3.013-.8L8.319 5.04c-1.213.693-1.627 2.253-.933 3.467 1.213 2.08.227 3.787-2.187 3.787a2.54 2.54 0 0 0-2.533 2.533v2.347a2.54 2.54 0 0 0 2.533 2.533c2.413 0 3.4 1.707 2.187 3.8a2.529 2.529 0 0 0 .933 3.453l2.307 1.32c1.053.627 2.413.253 3.04-.8l.147-.253c1.2-2.093 3.173-2.093 4.387 0l.147.253c.627 1.053 1.987 1.427 3.04.8l2.307-1.32a2.531 2.531 0 0 0 .933-3.453c-1.213-2.093-.227-3.8 2.187-3.8a2.54 2.54 0 0 0 2.533-2.533v-2.347a2.56 2.56 0 0 0-2.547-2.533zM16 20.333c-2.387 0-4.333-1.947-4.333-4.333s1.947-4.333 4.333-4.333c2.387 0 4.333 1.947 4.333 4.333S18.386 20.333 16 20.333z"/>
    </symbol>
    <symbol id="icon-messages" viewBox="0 0 32 32">
      <path d="M22.667 4H9.334c-4 0-6.667 2-6.667 6.667V20c0 4.667 2.667 6.667 6.667 6.667h4.76c.787 0 1.427-.693 1.32-1.48a8.82 8.82 0 0 1 .093-2.947c.707-3.467 3.56-6.227 7.053-6.8a8.679 8.679 0 0 1 4.88.6c.893.387 1.893-.227 1.893-1.2v-4.173C29.333 6 26.666 4 22.666 4zm.626 7.453-4.173 3.333c-.88.707-2 1.053-3.12 1.053s-2.253-.347-3.12-1.053l-4.173-3.333a1.024 1.024 0 0 1-.16-1.413.997.997 0 0 1 1.4-.16l4.173 3.333c1.013.813 2.733.813 3.747 0L22.04 9.88a.984.984 0 0 1 1.4.16 1.01 1.01 0 0 1-.147 1.413z"/>
      <path d="M24 17.333A6.66 6.66 0 0 0 17.333 24 6.67 6.67 0 0 0 24 30.667 6.661 6.661 0 0 0 30.667 24 6.652 6.652 0 0 0 24 17.333zm2.733 6.067-.493.48-2.907 2.92a1.29 1.29 0 0 1-.573.28l-1.307.187c-.467.067-.8-.267-.733-.733l.187-1.307c.027-.187.147-.44.28-.573l2.907-2.893.48-.493c.32-.32.68-.533 1.053-.533.32 0 .68.147 1.08.533.893.867.613 1.547.027 2.133z"/>
    </symbol>
  </defs>
</svg>
